<svg xmlns="http://www.w3.org/2000/svg" viewBox="0 0 800 600" fill="none">
  <circle cx="400" cy="300" r="250" fill="#F3F4FF"/>
  
  <rect x="200" y="180" width="400" height="260" rx="16" fill="#FFFFFF" stroke="#0F172A" stroke-width="8"/>
  
  <path d="M200 196C200 187.163 207.163 180 216 180H584C592.837 180 600 187.163 600 196V220H200V196Z" fill="#0F172A"/>
  
  <circle cx="230" cy="200" r="6" fill="#EF4444"/>
  <circle cx="250" cy="200" r="6" fill="#F59E0B"/>
  <circle cx="270" cy="200" r="6" fill="#10B981"/>

  <rect x="340" y="300" width="120" height="90" rx="16" fill="#3B82F6"/>
  <path d="M370 300 V 250 A 30 30 0 0 1 430 250" stroke="#3B82F6" stroke-width="16" stroke-linecap="round" fill="none"/>
  
  <circle cx="400" cy="335" r="12" fill="#FFFFFF"/>
  <path d="M394 340 L390 365 h20 l-4 -25 z" fill="#FFFFFF"/>

  <circle cx="180" cy="150" r="16" fill="#F59E0B" opacity="0.8"/>
  <circle cx="650" cy="450" r="24" fill="#10B981" opacity="0.6"/>
  <path d="M580 160 L620 120 M620 160 L580 120" stroke="#3B82F6" stroke-width="8" stroke-linecap="round" opacity="0.5"/>
</svg>
